<svg id="Artwork_1" data-name="Artwork 1" xmlns="http://www.w3.org/2000/svg" xmlns:xlink="http://www.w3.org/1999/xlink" width="142.838" height="127.312" viewBox="0 0 142.838 127.312">
  <defs>
    <clipPath id="clip-path">
      <rect id="Rectangle_19" data-name="Rectangle 19" width="142.838" height="127.312" fill="none"/>
    </clipPath>
  </defs>
  <g id="Group_903" data-name="Group 903" clip-path="url(#clip-path)">
    <rect id="Rectangle_16" data-name="Rectangle 16" width="142.582" height="127.092" transform="translate(0.191)" fill="#fff200"/>
    <g id="Group_902" data-name="Group 902" clip-path="url(#clip-path)">
      <path id="Path_6939" data-name="Path 6939" d="M142.715,260.452a8.335,8.335,0,0,0-1.841-2.078,8.622,8.622,0,0,0-5.418-1.893,9.641,9.641,0,0,0-4.734,1.078,8.939,8.939,0,0,0-3.156,2.893,12.673,12.673,0,0,0-1.762,4.129,20.562,20.562,0,0,0-.552,4.786,19.126,19.126,0,0,0,.552,4.6,12.42,12.42,0,0,0,1.762,4.024,9.02,9.02,0,0,0,3.156,2.867,9.635,9.635,0,0,0,4.734,1.078,7.664,7.664,0,0,0,5.917-2.3,10.651,10.651,0,0,0,2.6-6.1h7.995a19.1,19.1,0,0,1-1.644,6.364,15.247,15.247,0,0,1-3.471,4.839,14.758,14.758,0,0,1-5.049,3.051,18.509,18.509,0,0,1-6.364,1.052,19.253,19.253,0,0,1-7.758-1.5,16.61,16.61,0,0,1-5.8-4.122,18.274,18.274,0,0,1-3.616-6.18A22.683,22.683,0,0,1,117,269.371a23.475,23.475,0,0,1,1.262-7.811,18.771,18.771,0,0,1,3.616-6.285,16.6,16.6,0,0,1,5.812-4.208,20.142,20.142,0,0,1,13.636-.634,15.912,15.912,0,0,1,4.931,2.6,14.082,14.082,0,0,1,3.616,4.234,15.139,15.139,0,0,1,1.788,5.786h-8a6.748,6.748,0,0,0-.947-2.6" transform="translate(-106.199 -242.231)" fill="#231f20"/>
      <rect id="Rectangle_17" data-name="Rectangle 17" width="8.258" height="37.561" transform="translate(52.298 8.202)" fill="#231f20"/>
      <path id="Path_6940" data-name="Path 6940" d="M200.32,31.9V24.95h30.773V31.9H219.837V62.511h-8.261V31.9Z" transform="translate(-134.468 -16.748)" fill="#231f20"/>
      <path id="Path_6941" data-name="Path 6941" d="M297.77,24.95h9.257l8.787,14.836,8.731-14.836h9.208L319.812,48.1V62.511h-8.258V47.886Z" transform="translate(-199.883 -16.748)" fill="#231f20"/>
      <path id="Path_6942" data-name="Path 6942" d="M138.681,394.974a6,6,0,0,1-1.233,1.788,5.433,5.433,0,0,1-1.788,1.167,6.144,6.144,0,0,1-2.334.421,5.878,5.878,0,0,1-2.5-.526,5.786,5.786,0,0,1-1.949-1.453,6.757,6.757,0,0,1-1.272-2.219,8.363,8.363,0,0,1-.46-2.821,9.535,9.535,0,0,1,.355-2.535,7.159,7.159,0,0,1,1.118-2.344,5.946,5.946,0,0,1,1.989-1.723,6.105,6.105,0,0,1,2.959-.657,5.81,5.81,0,0,1,2.37.45,5.53,5.53,0,0,1,1.693,1.128,4.887,4.887,0,0,1,1.022,1.443,3.722,3.722,0,0,1,.365,1.4h-.381a3.7,3.7,0,0,0-.441-1.463,4.541,4.541,0,0,0-1.042-1.292,5.307,5.307,0,0,0-1.568-.927,6.134,6.134,0,0,0-4.859.329,5.786,5.786,0,0,0-1.864,1.7,7.02,7.02,0,0,0-1.022,2.229,9,9,0,0,0-.329,2.275,8.218,8.218,0,0,0,.381,2.505,6.4,6.4,0,0,0,1.128,2.124,5.637,5.637,0,0,0,1.828,1.473,5.3,5.3,0,0,0,2.459.556,5.725,5.725,0,0,0,2.2-.4,5.086,5.086,0,0,0,1.683-1.108,5.632,5.632,0,0,0,1.147-1.683,7.561,7.561,0,0,0,.592-2.1h.381a8.131,8.131,0,0,1-.657,2.3" transform="translate(-113.014 -332.538)" fill="#231f20"/>
      <path id="Path_6943" data-name="Path 6943" d="M132.836,398.075a6.139,6.139,0,0,1-2.6-.549,6.046,6.046,0,0,1-2.032-1.512,7.022,7.022,0,0,1-1.315-2.3,8.643,8.643,0,0,1-.473-2.9,9.839,9.839,0,0,1,.362-2.6,7.432,7.432,0,0,1,1.157-2.419A6.209,6.209,0,0,1,130.006,384a6.366,6.366,0,0,1,3.08-.7,6.076,6.076,0,0,1,2.469.47,5.8,5.8,0,0,1,1.765,1.177,5.147,5.147,0,0,1,1.072,1.515,3.968,3.968,0,0,1,.385,1.486v.247h-.851l-.016-.22a3.473,3.473,0,0,0-.414-1.371,4.323,4.323,0,0,0-.986-1.223,5.094,5.094,0,0,0-1.5-.884,5.9,5.9,0,0,0-4.652.309,5.589,5.589,0,0,0-1.788,1.644,6.812,6.812,0,0,0-.986,2.153,8.793,8.793,0,0,0-.309,2.216,8.023,8.023,0,0,0,.371,2.433,6.187,6.187,0,0,0,1.085,2.045,5.428,5.428,0,0,0,1.749,1.41,5.09,5.09,0,0,0,2.347.529,5.514,5.514,0,0,0,2.107-.385,4.873,4.873,0,0,0,1.6-1.059,5.419,5.419,0,0,0,1.1-1.614,7.372,7.372,0,0,0,.575-2.038l.03-.207h.861l-.036.273a8.413,8.413,0,0,1-.657,2.354,6.275,6.275,0,0,1-1.282,1.857,5.7,5.7,0,0,1-1.867,1.22,6.409,6.409,0,0,1-2.423.437" transform="translate(-112.524 -332.022)" fill="#231f20"/>
      <path id="Path_6944" data-name="Path 6944" d="M97.132,171v.381H87.99V157.73h9.066v.381H88.371v5.97H96.54v.381H88.371V171Z" transform="translate(-59.065 -105.879)" fill="#231f20"/>
      <path id="Path_6945" data-name="Path 6945" d="M96.882,171.136H87.26V157H96.8v.861H88.121v5.49h8.166v.861H88.121v6.062h8.761Z" transform="translate(-58.575 -105.389)" fill="#231f20"/>
      <path id="Path_6946" data-name="Path 6946" d="M123.365,157.73l9.333,13.179h.039V157.73h.381v13.656h-.572l-9.336-13.179h-.039v13.179h-.381V157.73Z" transform="translate(-82.425 -105.879)" fill="#231f20"/>
      <path id="Path_6947" data-name="Path 6947" d="M132.869,171.136h-.937l-.072-.1-8.938-12.62v12.722h-.861V157H123l9.011,12.722V157h.861Z" transform="translate(-81.935 -105.389)" fill="#231f20"/>
      <path id="Path_6948" data-name="Path 6948" d="M160.34,157.73h10.194v.381h-4.915v13.274h-.385V158.111H160.34Z" transform="translate(-107.631 -105.879)" fill="#231f20"/>
      <path id="Path_6949" data-name="Path 6949" d="M165.369,171.136h-.861V157.861h-4.9V157h10.674v.861h-4.915Z" transform="translate(-107.141 -105.389)" fill="#231f20"/>
      <path id="Path_6950" data-name="Path 6950" d="M206.032,171v.381H196.89V157.73h9.066v.381h-8.685v5.97h8.169v.381h-8.169V171Z" transform="translate(-132.166 -105.879)" fill="#231f20"/>
      <path id="Path_6951" data-name="Path 6951" d="M205.782,171.136H196.16V157h9.546v.861h-8.685v5.49h8.169v.861h-8.169v6.062h8.761Z" transform="translate(-131.676 -105.389)" fill="#231f20"/>
      <path id="Path_6952" data-name="Path 6952" d="M315.91,398.669V385H321.5a4.767,4.767,0,0,1,3.136.851,3.394,3.394,0,0,1,1.032,2.65,3.288,3.288,0,0,1-.726,2.3,3.9,3.9,0,0,1-2.2,1.233v.039a3.994,3.994,0,0,1,1.4.411,2.151,2.151,0,0,1,.822.776,3.031,3.031,0,0,1,.381,1.128,10.259,10.259,0,0,1,.1,1.473c0,.191,0,.431.02.717s.033.572.056.851.059.536.1.766a1.21,1.21,0,0,0,.154.477h-.421a2.243,2.243,0,0,1-.155-.565q-.056-.352-.085-.756t-.039-.812V395.8a8.174,8.174,0,0,0-.125-1.5,2.351,2.351,0,0,0-.506-1.108,2.4,2.4,0,0,0-1.091-.69,6.092,6.092,0,0,0-1.894-.24h-5.154v6.407Zm5.49-6.792a5.507,5.507,0,0,0,1.463-.191,3.443,3.443,0,0,0,1.233-.611,3.124,3.124,0,0,0,.861-1.062,3.366,3.366,0,0,0,.329-1.539,3.027,3.027,0,0,0-.881-2.268,4.018,4.018,0,0,0-2.811-.812h-5.3v6.486Z" transform="translate(-239.723 -333.162)" fill="#231f20"/>
      <path id="Path_6953" data-name="Path 6953" d="M325.739,398.436H324.7l-.062-.138a2.438,2.438,0,0,1-.171-.625c-.04-.243-.069-.5-.089-.776s-.033-.549-.04-.825,0-.523,0-.743a7.989,7.989,0,0,0-.122-1.456,2.121,2.121,0,0,0-.454-.986,2.179,2.179,0,0,0-.986-.618,5.891,5.891,0,0,0-1.818-.227h-4.914v6.394h-.861V384.3h5.825a4.994,4.994,0,0,1,3.287.907,3.685,3.685,0,0,1,1.118,2.827,3.52,3.52,0,0,1-.782,2.446,3.772,3.772,0,0,1-1.506,1.059,3.265,3.265,0,0,1,.635.26,2.4,2.4,0,0,1,.911.861,3.288,3.288,0,0,1,.414,1.216,10.514,10.514,0,0,1,.1,1.509c0,.2,0,.434.02.707s.03.562.056.841.056.523.092.746a.989.989,0,0,0,.112.378Zm-3.961-6.851.233.023v-.062l-.233.039m-5.736-.414h4.868a5.293,5.293,0,0,0,1.4-.184,3.22,3.22,0,0,0,1.151-.569,2.9,2.9,0,0,0,.8-.986,3.143,3.143,0,0,0,.3-1.433,2.775,2.775,0,0,0-.805-2.094,3.817,3.817,0,0,0-2.646-.746h-5.062Z" transform="translate(-239.233 -332.692)" fill="#231f20"/>
      <path id="Path_6954" data-name="Path 6954" d="M84.282,506.4c3.537-4.385,8.853-7.232,15.993-8.038,15.362-1.709,26.733,5.237,28.6,18.708,1.055,7.636-.861,14.878-4.372,19.106H84.15V506.462l.1.033Zm15.733,5.007c-1.972,1.736-2.906,5.023-3.133,8.5-.329,4.931.69,10.132,3.853,12.055a7.561,7.561,0,0,0,6.723.329c5.26-2.541,5.7-15.349,1.972-20.158a6.506,6.506,0,0,0-1.972-1.713,7.648,7.648,0,0,0-3.787-.46,6.206,6.206,0,0,0-3.656,1.45" transform="translate(-84.15 -409.085)" fill="#fff" fill-rule="evenodd"/>
      <path id="Path_6955" data-name="Path 6955" d="M277.144,536.131H259.78c.043-4.007.112-6.933.066-11.134-.02-1.644.036-3.251,0-5.073-.056-2.788-.7-5.917-2.807-7.232-2.452-1.532-7.058-.871-8.547,1.315-1.644,2.406-1.5,6.17-1.5,10.145v11.989h-17.3v-9.75c.023-4.5.03-7.929,0-13.373-.026-4.849-.02-9.142,0-13.7h15.8V506.1a5.174,5.174,0,0,0,1.045-1.252c2.571-3.116,5.618-5.773,10.444-6.522,6.108-.95,11.887.516,15.21,3.688,3.261,3.11,4.961,8.3,4.961,14.362Z" transform="translate(-181.831 -409.042)" fill="#fff" fill-rule="evenodd"/>
      <path id="Path_6956" data-name="Path 6956" d="M426.616,536.179H386.271a20.943,20.943,0,0,1-3.981-8.235,27.722,27.722,0,0,1-.26-10.671,22.534,22.534,0,0,1,9.468-14.954c4.566-3.087,12.13-5,19.52-3.886a25.136,25.136,0,0,1,12.666,5.588,16.671,16.671,0,0,1,1.568,1.45,7.193,7.193,0,0,1,1.371,1.713,11.269,11.269,0,0,1,0,2.239v15.944H399.009a8.254,8.254,0,0,0,4.441,7.561,8.776,8.776,0,0,0,4.895.986,6.405,6.405,0,0,0,5.092-2.768,6.623,6.623,0,0,1,.783-1.055h12.4Zm-19.977-27.337c-4.385.178-7.627,2.558-7.64,7.561h15.733a7.551,7.551,0,0,0-8.093-7.561" transform="translate(-283.84 -409.09)" fill="#fff" fill-rule="evenodd"/>
    </g>
  </g>
</svg>
