<svg id="Group_899" data-name="Group 899" xmlns="http://www.w3.org/2000/svg" width="1259.82" height="63.396" viewBox="0 0 1259.82 63.396">
  <path id="Path_588" data-name="Path 588" d="M1235.229,56.562c-3.264-.011-6.529-.039-9.792-.026a125.958,125.958,0,0,0-14.127.78c-.879.1-1.836.088-2.757.128-5.136.288-10.312.209-15.437.087q-15.131-.36-30.162.3c-6.335.284-12.605.755-18.805,1.376-2.117,0-4.234.026-6.349,0-9.754-.111-19.481.5-29.228.246-19.736-.52-39.505-.387-59.224-.179-34.336.362-68.663.073-102.993.2-30.114.112-60.243.2-90.346-.08-22.1-.2-44.2.025-66.288-.252-36.683-.462-73.369-.13-110.051-.285-8.7-.037-17.367.244-26.042.394-6.894.118-13.792.364-20.683.575q-9.816.3-19.63.595c-9.834.282-19.675.4-29.51.6-7.584.156-15.192.338-22.76.727-3.234.166-6.526.274-9.8.384-12.877.433-25.776.519-38.68.679-6.919.086-13.842.154-20.761.167-21.527.037-43.062.146-64.581-.039-11.977-.1-23.973-.4-35.925-.157-19.865.409-39.737-.021-59.579.285-32.1.5-64.2.318-96.285.139-16.33-.091-32.686.112-48.988-.26-14.932-.341-29.85-.2-44.764-.153-7.142.023-14.307.173-21.465.208-1.286.007-2.574-.06-3.861-.093a6.45,6.45,0,0,1,2.327-.19c4.909-.151,9.85-.2,14.725-.465q22.7-1.229,45.573-1.29c6.929-.029,13.826-.28,20.74-.368,5.394-.07,10.775-.378,16.181-.213,7.949.242,15.883.581,23.868.571,9.278-.011,18.544-.06,27.819-.268,9.962-.223,19.954-.174,29.933-.28,12.8-.137,25.591-.46,38.4-.334,6.582.063,13.139-.166,19.692-.333,10.774-.278,21.562-.366,32.343-.549,8.7-.148,17.373.284,26.07.185.7-.007,1.4.038,2.1.058,9.347.05,18.684.4,28.041.135l-9.311-.314c-7.115-.253-14.228-.522-21.347-.753-10.173-.33-20.354-.619-30.565-.634q-12.327-.018-24.635.277c-8.663.211-17.341.387-26.016.418-12.214.043-24.422.09-36.63.3-8.679.148-17.379.08-26.062.2-3.639.053-7.286.029-10.916.122-10.561.268-21.112.252-31.652-.113-8.1-.28-16.2-.256-24.3-.158-7.254.09-14.49.445-21.744.528-8.088.092-16.161.228-24.233.47-13.908.414-27.694,1.319-41.628,1.674q-15.786.4-31.581.684c-4.693.085-9.42-.015-14.082.178-2.909.12-5.867-.064-8.725.271-5.693-.148-11.33.309-17.012.267-1.412.052-2.979-.271-4.176.3-4.822.061-9.56-.222-14.33-.492-4.018-.227-5.922-1.2-7.126-2.639a44.41,44.41,0,0,1-5.282-8.356A62.443,62.443,0,0,1,8.76,42.751a87.236,87.236,0,0,0-3.01-8.535C4.6,31.667,2.436,29.227,1.238,26.685a13.687,13.687,0,0,1-.724-9.474c.218-.874.138-1.76.276-2.638a8.292,8.292,0,0,1,1.855-4.157c.542-.653,1.049-.947,2.989-.762a126.691,126.691,0,0,0,16.47.335c4.769-.17,9.5-.554,14.233-.865C43.5,8.654,50.7,8.247,57.807,7.663c9.429-.774,19.035-.979,28.485-1.677,3.2-.237,6.509-.134,9.758-.227,3.506-.1,6.893-.42,10.351-.575,1.043-.048,2.083-.148,3.136-.127,8.712.166,17.291-.454,25.925-.755.756-.026,1.4-.1,1.564.32-7.093.63-14.311.875-21.5,1.178-12.909.544-25.887.792-38.734,1.6-13.072.823-26.164,1.6-39.01,2.94a144.229,144.229,0,0,0-19.365,2.974,6.331,6.331,0,0,0-3.057.88l4.2-.652c1.815-.181,3.623-.375,5.447-.539,14.72-1.322,29.729-1.566,44.67-2.053,5.844-.191,11.71-.268,17.558-.444,7.358-.221,14.7-.513,22.063-.734,6.9-.206,13.784-.439,20.633-.836,10.793-.625,21.576-1.283,32.374-1.893,10.34-.583,20.767-.784,31.165-1.075,10.055-.279,20.1-.626,30.155-.887q13.7-.354,27.442-.41c15.158-.052,30.316-.052,45.471.254,11.967.242,23.96.181,35.939.276,17.394.137,34.8.054,52.2-.127,13.4-.14,26.816-.071,40.221-.086,21.05-.024,42.092-.273,63.142-.234,7.169.012,14.346-.065,21.51-.066,19.4,0,38.8-.167,58.2-.23l3.846-.025c9.517.01,19.051-.119,28.546.077,6.208.127,12.417.131,18.615.262,9.245.2,18.476-.057,27.7-.125,3.829-.029,7.707-.175,11.566-.182,8.444-.012,16.876-.252,25.3-.406C690,3.943,696.687,4,703.346,3.824c19.593-.529,39.2-.079,58.8-.276,8.552-.086,17.088-.395,25.652-.325.8.006,1.61-.118,2.415-.181a11.136,11.136,0,0,0,3.716.227c18.872.012,37.745-.03,56.616.029,9.5.029,18.975-.154,28.456-.32.351-.006.707,0,1.054-.025,8.084-.47,16.172-.927,24.322-1.154a3.712,3.712,0,0,0,1.54-.3c5.357-.328,10.772-.187,16.141-.338C933.525.848,945.013.79,956.475.545,967.514.309,978.539.458,989.561.3c39.708-.566,79.427-.152,119.138-.191,8.183-.009,16.42.078,24.609.27,7.242.171,14.493.343,21.722.586q12.94.436,25.88.883c8.275.292,16.573.509,24.821.888,12.429.571,24.9,1,37.238,1.924,4.826.361,9.694.662,14.546.979a8.818,8.818,0,0,0,2.3.709c-.489,2.285-1.843,4.514-2.482,6.793a46.443,46.443,0,0,0-1.176,6.261,45.419,45.419,0,0,1-1.738,6.391,38.433,38.433,0,0,0-1.85,7.115c-.387,4.29-1.582,8.566-1.451,12.863.049,1.607-.216,3.22.578,4.824.283.57.649,1.267-.571,1.812a31.069,31.069,0,0,1-7.178-7.261c-1.154-1.654-1.8-3.347-1.17-5.068.353-.972.665-1.993,3.116-2.85.146.965.258,1.715.372,2.465a8.824,8.824,0,0,0,1.061-1.985c.254-.47.32-.895-.751-1.16a4.566,4.566,0,0,0-3.079.372,7.289,7.289,0,0,0-2.629,1.721,6.5,6.5,0,0,0-1.643,2.981c-.573,2.573.613,5.054,2.194,7.51,1.3,2.026,2.7,4.041,4.042,6.059.382.575.123.89-1.582.94C1240.988,56.217,1238.112,56.412,1235.229,56.562ZM1140.154,3.146c-5.1-.346-10.273-.285-15.408-.431-10.061-.285-20.143-.464-30.222-.6-13.613-.189-27.23-.39-40.849-.424-23.521-.06-47.045-.089-70.564.118-6.339.056-12.682.073-19.018.11-13.742.079-27.468.321-41.2.485q-7.737.092-15.466.307c-8.417.222-16.827.484-25.24.725q-13.334.381-26.668.757c-8.3.237-16.592.5-24.894.709-7.024.179-14.058.282-21.083.454-9.125.225-18.24.518-27.367.719-8.671.192-17.358.255-26.028.457-9.725.226-19.458.323-29.191.438-7.157.085-14.318.151-21.466.308q-17.206.379-34.4.871c-11.73.326-23.452.7-35.256,1.768a10.811,10.811,0,0,0,2.923.012c5.54-.352,11.123-.533,16.7-.718,5.374-.177,10.766-.268,16.152-.377,8.9-.181,17.8-.37,26.7-.512q9.144-.145,18.289-.261,13.019-.185,26.047-.341,10.9-.144,21.8-.365C772.166,7.2,779.885,7,787.61,6.84c7.028-.146,14.064-.241,21.088-.415,9.117-.226,18.226-.517,27.341-.761,8.419-.226,16.846-.4,25.263-.646,12.384-.355,24.758-.778,37.145-1.109q14.035-.376,28.1-.587c13.025-.185,26.058-.287,39.087-.412,10.453-.1,20.915-.1,31.364-.13,24.215-.074,48.437-.246,72.657.1,10.559.153,21.13.136,31.7.291,10.924.16,21.867.089,32.8.127.933,0,1.864.066,2.8.1,3.8.309,7.611.076,12.223.109A58.1,58.1,0,0,0,1140.154,3.146Zm80.286,20.992c.272-.819.232-.819-.49-1.344C1219.654,23.25,1220.193,23.634,1220.44,24.138Z" transform="translate(0 0)" fill="#3f3f3f"/>
</svg>
