<svg xmlns="http://www.w3.org/2000/svg" width="620.511" height="1444.746" viewBox="0 0 620.511 1444.746">
  <g id="Group_923" data-name="Group 923" transform="translate(1385.686 -1088.41) rotate(77)" opacity="0.377">
    <g id="Group_728" data-name="Group 728" transform="translate(811.799 1260.615)">
      <g id="Group_712" data-name="Group 712" transform="translate(0 61.527)">
        <path id="Path_672" data-name="Path 672" d="M906.063,2251.458q-3.414,15.171-7.6,29.922-1.054,4.214-2.1,8t-2.1,7.589q14.668-2.947,29.094-6.535a288.033,288.033,0,0,1,29.615-5.689v8.43q-15.724,2.529-30.927,6.108t-30.4,6.957q-2.628,8.43-4.716,17.069t-4.194,17.063l-20.444,78.385a94.618,94.618,0,0,1-2.622,9.9,93.271,93.271,0,0,0-2.62,9.9l-13.63,51.835H832.94l12.055-46.358a3.875,3.875,0,0,0,.524-2.1l.524-.42a19.156,19.156,0,0,1,1.047-5.058l15.727-59.421q4.189-17.7,8.648-34.555t9.174-34.558a6.251,6.251,0,0,1-2.358.42,6.382,6.382,0,0,0-2.36.422v-8.428c1.393-.277,2.622-.485,3.669-.631s2.27-.349,3.67-.631q2.618-10.116,5.243-20.017t5.242-20.021q2.615-9.256,4.98-18.328t4.981-18.333q-5.775.85-11.008,1.264-5.249.424-11.01.422v-8.008q7.331-.415,14.677-1.263t14.679-1.687q9.434-.839,18.871-1.685t18.87-1.686q17.817-2.1,35.385-3.582t35.382-3.163v8.43l-70.767,6.321q-8.915.85-17.3,1.688t-16.773,1.683v.423A257.2,257.2,0,0,0,906.063,2251.458Z" transform="translate(-832.94 -2202.994)" fill="#d6b253"/>
      </g>
      <g id="Group_713" data-name="Group 713" transform="translate(119.761 175.734)">
        <path id="Path_673" data-name="Path 673" d="M971.435,2287.267a99.427,99.427,0,0,0-6.553,9.272q-2.889,4.643-6.027,9.269-2.631,3.795-5.243,7.586-2.631,3.795-5.767,7.586-3.677,4.641-7.863,9.692A34.715,34.715,0,0,1,929.5,2339.1a19.544,19.544,0,0,1-6.288,1.688,13.78,13.78,0,0,1-6.815-.842q-4.2-2.1-5.5-5.269a27.925,27.925,0,0,1-1.834-6.532,64.846,64.846,0,0,1,1.572-13.907,51.864,51.864,0,0,0,.786-5.266,18.073,18.073,0,0,1,1.309-5.269,33.664,33.664,0,0,1-9.171,5.269,11.594,11.594,0,0,1-10.224-1.055q-7.331-4.634-5.764-12.221a50.237,50.237,0,0,1,4.718-13.488,49.42,49.42,0,0,1,6.816-10.532,1.16,1.16,0,0,0,.522-.847q7.334-8.424,13.892-10.746t10.221-1.894h.525a9.108,9.108,0,0,1,3.144.42h.525l2.62-3.792h9.96l-3.145,7.163-4.72,12.645a21.885,21.885,0,0,0-1.571,4c-.352,1.263-.705,2.6-1.047,4H929.5a19.348,19.348,0,0,0-1.571,4.427q-.53,2.318-1.049,4.427-2.628,8.431-4.719,16.855a93.312,93.312,0,0,0-2.619,16.857,22.462,22.462,0,0,0,.523,5.9c.345.286.523.494.523.631s.174.357.527.634l.522.42h1.575v-.42a1.694,1.694,0,0,0,1.049-.42l1.047-.422.524-.423a2.756,2.756,0,0,0,1.311-.841,2.807,2.807,0,0,1,1.312-.845,50.5,50.5,0,0,0,7.338-8.217q3.143-4.423,6.814-8.638a137.6,137.6,0,0,0,12.056-16.434,95.388,95.388,0,0,1,12.582-16.015Zm-56.091-.419a66.186,66.186,0,0,0,4.456-8.43q1.831-4.207,3.931-8.85l1.572-3.372h-1.047a2.781,2.781,0,0,0-1.049.212,2.76,2.76,0,0,1-1.05.208l-1.046.426a18.721,18.721,0,0,0-1.836.841,17.659,17.659,0,0,1-1.833.842,40.533,40.533,0,0,1-3.932,2.1,9.145,9.145,0,0,0-3.407,2.95,37.679,37.679,0,0,0-8.911,13.068,32.82,32.82,0,0,0-2.885,6.111q-1.312,3.579-.785,5.687a1.122,1.122,0,0,0,.523.842c-.351,0-.351.147,0,.424v.42h.524c0,.283.171.422.527.422,0,.281.172.42.522.42h1.046l.527-.42h.522c0-.278.083-.422.262-.422s.262-.137.262-.42a1.674,1.674,0,0,0,1.05-.424l1.048-.842a9.965,9.965,0,0,0,4.194-3.792,22.782,22.782,0,0,0,3.407-3.583C913.155,2289.731,914.3,2288.254,915.344,2286.848Z" transform="translate(-887.285 -2254.818)" fill="#d6b253"/>
      </g>
      <g id="Group_714" data-name="Group 714" transform="translate(165.338 182.873)">
        <path id="Path_674" data-name="Path 674" d="M955.97,2305.279a109.557,109.557,0,0,1,4.191,26.339q.52,13.7-11.008,24.234a34.353,34.353,0,0,1-17.3,8.849,38.967,38.967,0,0,1-10.745.213,15.828,15.828,0,0,1-9.174-4.006,11.3,11.3,0,0,1-3.933-7.794,21,21,0,0,1,1.311-8.64q2.1-8,8.912-16.855a137.5,137.5,0,0,1,26.211-25.289q-.53-2.1-1.049-4.422t-1.049-4.427a86.716,86.716,0,0,1-1.571-9.269,27.782,27.782,0,0,1,.524-9.272c.7-3.088,2.7-6.743,6.027-10.957s7.248-6.177,11.795-5.9h.524a7.189,7.189,0,0,1,2.623.419,20.982,20.982,0,0,1,5.765,3.161q3.144,2.318,3.145,9.063h-9.436q-2.1-5.057-4.193-3.8a9.71,9.71,0,0,0-2.1,2.109,17.819,17.819,0,0,0-4.718,9.272,24.594,24.594,0,0,0,.524,8.849q1.046,4.219,2.1,8.85,7.332-5.058,15.463-10.116t16.511-9.691l1.573,6.746Zm-12.057,42.566q6.807-8,6.552-17.277a65.993,65.993,0,0,0-2.885-17.7,1.549,1.549,0,0,0-.522-1.264,13,13,0,0,1-2.62,2.53,83.114,83.114,0,0,0-9.437,8.85q-4.187,4.643-8.387,9.691a80.973,80.973,0,0,0-6.029,9.483,17.6,17.6,0,0,0-2.358,10.324,4.733,4.733,0,0,0,4.193,4.427,18.359,18.359,0,0,0,7.339-.212A24.384,24.384,0,0,0,943.913,2347.845Z" transform="translate(-907.967 -2258.058)" fill="#d6b253"/>
      </g>
      <g id="Group_715" data-name="Group 715" transform="translate(224.866 10.957)">
        <path id="Path_675" data-name="Path 675" d="M1044.534,2376.853a6.247,6.247,0,0,0-2.357,1.472,48.464,48.464,0,0,0-3.932,3.583q-2.629,2.119-5.765,5.057a243.226,243.226,0,0,0-18.872,17.488q-7.864,8.216-12.582,14.118a21.486,21.486,0,0,0-1.047,1.9,12.712,12.712,0,0,1-1.573,2.316H985.825q2.619-5.9,4.717-11.587t4.195-11.592a78.427,78.427,0,0,1,2.621-7.794,66.878,66.878,0,0,0,2.622-8.219q1.043-3.366,1.836-7.166c.523-2.525,1.129-5.053,1.833-7.583a47.675,47.675,0,0,0,1.574-6.743,44.712,44.712,0,0,0,.522-6.744,23.213,23.213,0,0,0-2.1-5.055l-1.048-.842h-1.574c0,.283-.18.422-.525.422l-2.1.841-1.049.842h-.523a1.546,1.546,0,0,1-.788.423,1.51,1.51,0,0,0-.785.418,22.572,22.572,0,0,0-3.147,2.95,13.864,13.864,0,0,0-3.669,3.372l-2.1,1.689-.525.416c0,.287-.09.426-.262.426s-.262.144-.262.42a142.327,142.327,0,0,0-14.152,17.277q-4.72,6.319-9.961,14.328l-.524.423a9.558,9.558,0,0,0-1.572,2.106,143.056,143.056,0,0,0-6.815,15.8q-2.619,7.381-3.145,9.062v.423c-.343,1.412-.7,2.952-1.049,4.636a27.073,27.073,0,0,1-1.572,5.055,19.016,19.016,0,0,0-1.049,5.061H934.98q4.2-16.437,8.647-32.875,4.463-16.433,8.651-32.448,2.617-8.422,4.458-16.221,1.827-7.8,4.453-15.807,10.479-40.031,21.231-79.438t21.755-79.016h9.959q-4.2,15.171-8.125,30.131t-8.127,30.134q-8.915,34.134-18.084,67.849t-18.608,67.846q3.144-4.206,6.554-8.426t7.076-8.01a87.132,87.132,0,0,1,14.155-13.483,37.563,37.563,0,0,1,7.6-3.8,15.5,15.5,0,0,1,8.649-.839q7.332,2.109,9.434,8.215a22.446,22.446,0,0,1,1.048,11.592q-1.055,4.219-1.834,8t-1.836,8.01a94.828,94.828,0,0,1-2.62,9.9q-1.573,4.849-3.145,9.478a6.411,6.411,0,0,0-.788,2.112,6.627,6.627,0,0,1-.785,2.1q3.146-3.792,7.338-8.005,3.662-3.373,7.865-7.378a90.288,90.288,0,0,1,9.435-7.794,52.685,52.685,0,0,1,5.767-4q3.143-1.9,6.292-3.582Z" transform="translate(-934.98 -2180.046)" fill="#d6b253"/>
      </g>
      <g id="Group_716" data-name="Group 716" transform="translate(315.757 166.884)">
        <path id="Path_676" data-name="Path 676" d="M1044.161,2292.1a90.954,90.954,0,0,0-11.535,11.8q-4.716,5.908-10.482,12.224c-2.1,2.525-4.2,4.991-6.292,7.372s-4.191,4.709-6.29,6.952a71.067,71.067,0,0,1-5.766,6.535,71.159,71.159,0,0,0-5.768,6.533c-1.4,1.684-2.97,3.516-4.716,5.477a11.927,11.927,0,0,1-6.814,3.794q-8.379.846-9.436-5.48a7.81,7.81,0,0,1-.787-4.423,36.537,36.537,0,0,1,.787-4.422,14.994,14.994,0,0,1,.524-2.952c.351-1.406.7-2.808,1.047-4.214s.877-3.089,1.573-5.058q4.2-13.484,7.339-26.969t7.338-26.973h10.483q-4.714,16.018-8.909,31.816t-8.388,31.817a7.762,7.762,0,0,0-.524,2.952,11.506,11.506,0,0,0-.525,3.372q2.1-2.529,4.194-5.058t4.193-5.057q10.484-12.219,21.234-24.234a228.763,228.763,0,0,1,23.849-22.965Zm-40.89-32.874q-4.718,0-4.718-4.214t4.718-4.211q5.236,0,5.243,4.211T1003.271,2259.229Z" transform="translate(-976.225 -2250.803)" fill="#d6b253"/>
      </g>
      <g id="Group_717" data-name="Group 717" transform="translate(367.959 182.057)">
        <path id="Path_677" data-name="Path 677" d="M1091.124,2283.394a135.026,135.026,0,0,0-14.416,7.163,56.832,56.832,0,0,1-15.464,5.9,34.042,34.042,0,0,1-2.358,4c-.879,1.263-1.664,2.461-2.358,3.58a56.586,56.586,0,0,1-17.824,17.282,67.033,67.033,0,0,1-9.174,4.844,18.743,18.743,0,0,1-10.223,1.053,16.779,16.779,0,0,1-8.125-2.739,29.073,29.073,0,0,1-6.027-5.476,22.257,22.257,0,0,1-3.931-6.958,21.024,21.024,0,0,1-1.311-6.74v-.844a35.984,35.984,0,0,1,5.766-20.438,67.02,67.02,0,0,1,12.581-14.33,61.6,61.6,0,0,1,13.107-8.638c4.192-1.961,6.631-3.088,7.338-3.369l6.29,7.165a19.136,19.136,0,0,0-1.836.842,17.712,17.712,0,0,1-1.833.841,21.148,21.148,0,0,1,5.242.842q15.2,4.643,16.772,17.276v2.111a107.8,107.8,0,0,0,12.844-4.846q6.018-2.737,12.318-5.266Zm-43.507,16.433a9.587,9.587,0,0,1,1.571-2.106q-8.922,0-14.679-4.211a48.272,48.272,0,0,1-8.385-6.535q-4.2-4-3.147-8.218a44.492,44.492,0,0,0-6.289,9.483,41.537,41.537,0,0,0-3.671,10.745,22.642,22.642,0,0,0,.264,10.325,14.737,14.737,0,0,0,6.027,8.218q2.089,1.69,6.027.209a35.417,35.417,0,0,0,7.865-4.214,81.718,81.718,0,0,0,7.076-5.476,25.06,25.06,0,0,0,3.671-3.583,24.04,24.04,0,0,0,1.833-2.528A8.294,8.294,0,0,1,1047.617,2299.826Zm5.24-15.173v-1.26a1.626,1.626,0,0,0-.262-.844,1.527,1.527,0,0,1-.262-.847c-.352,0-.524-.135-.524-.419a1.175,1.175,0,0,0-.522-.842c0-.28-.353-.7-1.051-1.264a2.92,2.92,0,0,0-2.1-1.686,14.327,14.327,0,0,0-5.764-2.528h-1.049a.767.767,0,0,0-1.05,0h-1.049c-.35,0-.523.072-.523.211s-.18.209-.527.209l-.522.422-.524.423a1.15,1.15,0,0,1-.522.841v.422a1.516,1.516,0,0,0-.527,1.264v2.108a1.5,1.5,0,0,0,.527,1.264,2.252,2.252,0,0,0,1.046,1.685,11.459,11.459,0,0,0,6.552,4.847,24.7,24.7,0,0,0,8.649.634v-4.641Z" transform="translate(-999.913 -2257.688)" fill="#d6b253"/>
      </g>
      <g id="Group_718" data-name="Group 718" transform="translate(430.64 183.74)">
        <path id="Path_678" data-name="Path 678" d="M1144.422,2287.109q-8.387,12.226-15.2,23.808a152.073,152.073,0,0,1-16.772,22.971,84.359,84.359,0,0,1-9.962,10.535q-2.626,2.114-5.241,4.214a20.656,20.656,0,0,1-6.29,3.369,4.247,4.247,0,0,1-4.193-.42,6.657,6.657,0,0,1-2.1-2.529,18.237,18.237,0,0,1-1.571-11.377,89.024,89.024,0,0,1,2.622-10.955l3.145-10.116q1.571-5.056,3.669-10.112,2.088-5.9,4.454-11.589a91.938,91.938,0,0,0,3.931-11.59,36.933,36.933,0,0,0,1.573-5.9,34.183,34.183,0,0,0,.525-5.9v-1.683q0-2.529-1.57-2.317a5.231,5.231,0,0,0-2.623,1.049,32.953,32.953,0,0,0-9.437,6.746q-4.716,3.79-8.909,7.8t-8.39,8.218q-4.712,5.054-9.172,10.324a93.853,93.853,0,0,0-8.124,11.17q-4.193,6.319-8.388,12.637t-8.386,12.647a5.47,5.47,0,0,1-6.552,1.475c-2.623-.984-3.579-2.6-2.886-4.85a179.955,179.955,0,0,1,14.942-38.135,287.806,287.806,0,0,0,16.512-37.3h10.482a163.966,163.966,0,0,1-7.6,19.173q-4.458,9.486-9.174,19.176a54.944,54.944,0,0,1,5.505-6.11q2.872-2.738,5.5-5.689a163.477,163.477,0,0,1,18.874-17.7q2.618-2.107,5.763-4.217a49.542,49.542,0,0,1,6.817-3.792,18.067,18.067,0,0,1,4.716-1.475,8.894,8.894,0,0,1,5.767.633,10.376,10.376,0,0,1,5.506,6.108,22.3,22.3,0,0,1,1.307,6.535v1.264a49.827,49.827,0,0,0-.784,5.058,18.3,18.3,0,0,1-1.311,5.056q-1.571,5.9-3.67,11.59t-4.719,11.589q-2.1,5.058-3.672,10.112t-3.142,10.537c-.706,2.253-1.4,4.425-2.1,6.531a20.518,20.518,0,0,0-1.047,6.532c.695-.558,1.48-1.263,2.358-2.1s1.652-1.542,2.359-2.109q2.617-2.525,4.716-4.846c1.394-1.539,2.8-3.159,4.194-4.845q4.189-5.473,8.125-10.749,3.929-5.26,8.126-10.323a122.93,122.93,0,0,0,10.222-14.749,121.266,121.266,0,0,1,10.221-14.75Z" transform="translate(-1028.356 -2258.451)" fill="#d6b253"/>
      </g>
      <g id="Group_719" data-name="Group 719" transform="translate(642.925 36.725)">
        <path id="Path_679" data-name="Path 679" d="M1266.975,2194.626a228.408,228.408,0,0,1,63.427-1.263v8.006a228.215,228.215,0,0,0-58.707.842,179.784,179.784,0,0,0-31.977,8.641,122.775,122.775,0,0,0-27.784,14.538q-31.448,20.652-46.654,50.571-17.824,33.3-6.812,66.585a147.254,147.254,0,0,0,15.726,32.869q9.949,15.6,20.966,30.342,5.765,7.174,11.272,14.543a52.5,52.5,0,0,1,8.125,15.8q6.289,17.7-7.339,32.028a91.43,91.43,0,0,1-14.416,12.434,74.068,74.068,0,0,1-17.562,9.062,127.152,127.152,0,0,1-15.464,4.211,34.171,34.171,0,0,1-15.985-.42q-12.584-3.375-16.252-13.063a40.414,40.414,0,0,1-2.62-18.962,91.838,91.838,0,0,1,2.358-15.174,54.445,54.445,0,0,1,6.031-14.749h11.531a31.842,31.842,0,0,0-1.836,3.372q-.783,1.685-1.833,3.792a63.192,63.192,0,0,0-5.242,16.012,6.51,6.51,0,0,0-.525,2.53,4.9,4.9,0,0,1-.523,2.528v9.7a9.353,9.353,0,0,0,1.048,4.211,5.954,5.954,0,0,0,1.573,4.217v.42c0,.275.082.42.261.42s.261.139.261.422l1.052,1.683.522.847h.524a6.811,6.811,0,0,0,1.573,1.683l.525.422h.525a3.336,3.336,0,0,0,2.1.841c0,.28.172.422.522.422a1.666,1.666,0,0,1,1.051.425,2.5,2.5,0,0,1,1.311.208,2.455,2.455,0,0,0,1.308.214h4.719a46.432,46.432,0,0,0,15.2-2.952q18.872-7.172,30.93-20.228a44.626,44.626,0,0,0,4.453-6.952,16.873,16.873,0,0,0,1.835-7.8q.516-6.738-3.669-15.169a118.157,118.157,0,0,0-9.7-14.752q-5.5-7.156-10.746-14.328a355.886,355.886,0,0,1-21.23-31.186,116.459,116.459,0,0,1-13.892-33.714,92.628,92.628,0,0,1-2.619-16.645,88.238,88.238,0,0,1,.523-16.647,75.87,75.87,0,0,1,4.458-18.332,128.322,128.322,0,0,1,8.123-17.488,158.131,158.131,0,0,1,20.441-27.394,149.917,149.917,0,0,1,27.26-23.176Q1232.369,2200.959,1266.975,2194.626Z" transform="translate(-1124.687 -2191.739)" fill="#d6b253"/>
      </g>
      <g id="Group_720" data-name="Group 720" transform="translate(692.95 96.507)">
        <path id="Path_680" data-name="Path 680" d="M1372.792,2270.277q-7.348.85-13.891,1.055-6.558.215-13.367,1.053-22.016,1.692-42.983,3.374t-42.462,3.367q-5.243,18.967-10.22,37.722t-9.7,37.714q-10.484,40.455-20.966,80.281t-22.02,79.862H1186.7q9.96-33.721,18.608-67.006t17.559-67.429q6.818-25.283,13.105-50.148t13.106-50.149q-25.163,2.11-50.585,4.214t-51.109,3.792v-8.007q6.291-.415,12.582-.847,6.289-.408,12.58-.839,19.923-1.683,39.576-3.161t39.578-3.583q3.66-13.485,7.076-26.339t7.6-26.337h10.483q-4.2,13.069-7.6,25.914-3.421,12.865-7.078,25.92,27.779-2.1,55.041-4.216t55.565-4.214Z" transform="translate(-1147.388 -2218.867)" fill="#d6b253"/>
      </g>
      <g id="Group_721" data-name="Group 721" transform="translate(778.045 194.276)">
        <path id="Path_681" data-name="Path 681" d="M1304.816,2280.088q-12.063,9.7-23.588,20.02-11.535,10.334-22.015,20.86-3.149,13.491-6.292,26.761t-7.337,26.339q-3.144,9.69-6.29,18.965t-7.339,18.962q-2.1,4.632-4.2,9.06t-4.191,9.062a3.593,3.593,0,0,0-1.313,2.109,6.291,6.291,0,0,1-.785,2.1v-.422a1.142,1.142,0,0,1-.524.842c-.344.844-.7,1.686-1.049,2.53a14.094,14.094,0,0,1-1.049,2.108q-1.568,2.529-3.143,5.058a25.9,25.9,0,0,1-3.671,4.632,56.333,56.333,0,0,1-4.719,4.217,9.041,9.041,0,0,1-6.813,1.686q-8.38-.851-11.008-6.744a36.894,36.894,0,0,1-3.146-11.38,85.031,85.031,0,0,1-.261-11.375,90.713,90.713,0,0,1,1.308-11.379,110.457,110.457,0,0,1,11.011-33.714,161.754,161.754,0,0,1,20.7-30.342q12.315-14.328,25.428-27.814c1.047-.847,2.005-1.686,2.879-2.53a32.356,32.356,0,0,0,2.359-2.528q1.049-4.208,1.835-8.218t1.836-8.219q.518-2.942,1.049-5.689a37.4,37.4,0,0,1,1.574-5.688c-1.051,1.409-2.277,2.949-3.67,4.638a68.962,68.962,0,0,1-6.029,8.215,34.732,34.732,0,0,1-8.123,6.955c-1.4.844-2.8,1.622-4.194,2.314a7.522,7.522,0,0,1-4.719.634,13.62,13.62,0,0,1-8.91-4.634,16.253,16.253,0,0,1-2.62-12.01,71.144,71.144,0,0,1,3.144-12.432q2.1-5.058,4.193-10.116a89.29,89.29,0,0,1,4.716-9.691h11.01q-3.146,6.746-6.288,13.487a97.506,97.506,0,0,0-5.244,13.907q-2.1,5.9-1.046,10.112a2.1,2.1,0,0,0,.522,1.688v.422a1.165,1.165,0,0,1,.524.841c.344,0,.523.146.523.422l.527-.422c.344,0,.524-.064.524-.208s.171-.212.521-.212l1.05-.842a23.537,23.537,0,0,0,3.672-2.738,30.587,30.587,0,0,0,2.618-3.164,126.9,126.9,0,0,0,11.007-15.38q4.72-7.792,9.439-16.225h11.008a107.227,107.227,0,0,1-2.362,16.646q-1.84,8.221-3.4,16.226-.531,2.109-.789,3.58c-.179.99-.44,2.18-.784,3.583q9.433-9.266,19.394-17.908t19.919-17.071Zm-60.28,59a18.558,18.558,0,0,0,.785-2.317,9.782,9.782,0,0,0,.262-2.317,6.875,6.875,0,0,0-1.574,1.685q-12.579,13.5-23.85,28.026a123.574,123.574,0,0,0-17.562,30.552,96.619,96.619,0,0,0-5.765,28.658,32.975,32.975,0,0,0-.521,5.688v6.109c.349,1.4.7,3.016,1.044,4.849a13.35,13.35,0,0,0,1.573,4.427.785.785,0,0,0,.263.631.74.74,0,0,1,.262.631l.524.423.524.419h1.048l.525-.842c.7,0,1.049-.283,1.049-.842.352,0,.875-.42,1.57-1.267a11.946,11.946,0,0,0,1.575-2.317,12.569,12.569,0,0,1,1.57-2.316,200.633,200.633,0,0,0,12.057-24.023,341.824,341.824,0,0,0,14.155-37.717Q1239.812,2358.479,1244.537,2339.087Z" transform="translate(-1186.002 -2263.232)" fill="#d6b253"/>
      </g>
      <g id="Group_722" data-name="Group 722" transform="translate(872.698 38.77)">
        <path id="Path_682" data-name="Path 682" d="M1310.253,2363.767q-7.348,14.754-14.156,28.654a178.425,178.425,0,0,1-16.775,27.394q-4.2,5.909-8.646,11.8t-9.7,11.8a48.337,48.337,0,0,1-9.435,9.272,63.084,63.084,0,0,1-5.5,3.16,13.035,13.035,0,0,1-6.028,1.475h-1.047a1.672,1.672,0,0,1-1.047-.423h-1.574a12.991,12.991,0,0,1-2.623-1.26q-5.233-3.373-4.716-12.647a88.325,88.325,0,0,1,2.622-17.276c.349-1.686.7-3.16,1.047-4.427s.7-2.453,1.047-3.58l26.737-101.986q8.379-31.181,16.249-61.738t16.772-61.318h10.486q-8.919,31.6-17.3,63.214t-16.776,63.634q-6.288,25.284-12.843,50.151t-13.367,50.149v.42l-1.572,6.324q-1.045,3.792-1.834,8.005a72.134,72.134,0,0,0-1.049,7.8q-.258,3.589.786,5.266c.705,1.129,1.924.99,3.669-.419l4.719-3.792a85.51,85.51,0,0,0,8.648-9.9q3.933-5.267,7.6-10.327,11.012-14.743,20.708-29.709a299.154,299.154,0,0,0,17.563-30.973c0-.56.7-1.961,2.1-4.214a14.806,14.806,0,0,0,1.574-3.372Z" transform="translate(-1228.955 -2192.667)" fill="#d6b253"/>
      </g>
      <g id="Group_723" data-name="Group 723" transform="translate(941.622 182.475)">
        <path id="Path_683" data-name="Path 683" d="M1347.559,2283.163q-7.343,4.643-13.627,9.48-6.29,4.858-13.63,9.483c0,.281-.09.42-.262.42s-.263.148-.263.42a51.851,51.851,0,0,0-7.6,4.638,52.084,52.084,0,0,1-7.6,4.638q-5.778,3.379-12.846,7.165a25.2,25.2,0,0,1-14.939,2.947,16.49,16.49,0,0,1-9.435-3.372,16.284,16.284,0,0,1-5.241-7.374,32.573,32.573,0,0,1-1.835-9.062,26.242,26.242,0,0,1,.787-8.427,70.094,70.094,0,0,1,6.289-15.173,62.257,62.257,0,0,1,9.957-13.483,29.675,29.675,0,0,1,6.817-4.635,28.97,28.97,0,0,1,12.056-2.952,45.535,45.535,0,0,1,7.863,1.475,13.226,13.226,0,0,1,6.292,4,8.551,8.551,0,0,1,.525,8.638,15.215,15.215,0,0,1-6.817,6.952,35.83,35.83,0,0,1-18.871,2.53,14.621,14.621,0,0,1-3.932-1.055,11.661,11.661,0,0,1-2.359-1.475q-1.571,2.533-3.143,5.061a28.037,28.037,0,0,0-2.624,5.476,40.106,40.106,0,0,0-2.356,8.008,19.409,19.409,0,0,0,.262,8.427,27.527,27.527,0,0,0,1.309,4.006,7.856,7.856,0,0,0,2.358,3.16,6.507,6.507,0,0,0,4.195,1.264,21.712,21.712,0,0,0,7.865-2.319q3.66-1.894,7.338-3.58,3.66-2.107,7.34-4.428,3.658-2.309,7.336-4.842c.344,0,1.394-.7,3.147-2.109a1.682,1.682,0,0,0,1.047-.42q2.089-1.266,4.718-2.741a38.214,38.214,0,0,0,5.242-3.58q1.571-.839,4.454-2.741c1.918-1.263,3.583-2.317,4.98-3.16l1.574-1.266a38.625,38.625,0,0,1,5.242-3.582q2.621-1.471,5.242-3.159Zm-50.845-16.857h-4.193a23.711,23.711,0,0,0-4.457,1.9,6.767,6.767,0,0,0-2.358,1.9,6.445,6.445,0,0,0-1.31,1.266,3.6,3.6,0,0,1-.785.841,4.006,4.006,0,0,0,2.616.845,1.668,1.668,0,0,0,1.049.42,18.541,18.541,0,0,0,10.486-1.266,8.085,8.085,0,0,0,2.1-1.263c.7-.56,1.05-.983,1.05-1.264a3.2,3.2,0,0,0,.524-1.686v-.422l-.524-.423h-1.05v-.416h-1.05a1.7,1.7,0,0,0-1.047-.425Z" transform="translate(-1260.231 -2257.877)" fill="#d6b253"/>
      </g>
      <g id="Group_724" data-name="Group 724" transform="translate(1087.657 0)">
        <path id="Path_684" data-name="Path 684" d="M1485.853,2386.631q-20.443,29.078-40.624,57.522t-40.627,57.526q-5.242,7.161-10.221,13.7t-10.746,13.7q-4.2,5.471-8.387,10.956-4.2,5.47-8.911,10.535-4.189,4.212-8.651,8.007a40.925,40.925,0,0,1-10.219,6.324q-7.867,3.792-12.058,2.528t-5.242-3.372a9.3,9.3,0,0,0-1.574-2.108,50.773,50.773,0,0,1-1.572-6.532,40.472,40.472,0,0,1-.522-6.53,51.622,51.622,0,0,1,.522-7.378q.532-3.582,1.05-6.952a30.265,30.265,0,0,0,1.309-6.111q.271-2.744.787-6.11,2.1-10.118,3.932-20.441t4.455-20.436q4.2-20.232,9.437-40.458T1359,2400.535q5.774-20.64,11.008-40.875t11.008-40.457q5.765-20.228,11.8-40.668t11.792-40.669q3.146-10.116,6.029-20.228t6.027-20.228l6.293-20.228c0-.562.083-.908.26-1.055s.262-.485.262-1.055h10.484a13.037,13.037,0,0,0-1.309,4.426,18.248,18.248,0,0,1-1.312,4.846q-2.1,6.324-3.932,12.854t-3.931,12.855q-4.206,13.493-7.865,26.339-3.671,12.861-7.86,26.337-12.067,40.882-23.329,81.335-11.279,40.458-21.753,81.333-5.76,20.23-10.484,40.458t-8.913,40.877q-1.571,7.583-2.878,15.385t-2.361,15.379a64.733,64.733,0,0,0-1.571,13.905,8.967,8.967,0,0,1,.522,3.372,14.76,14.76,0,0,0,1.572,2.741c.7.983,2.277.908,4.715-.211a13.078,13.078,0,0,0,2.624-1.266l1.046-.844a2.751,2.751,0,0,0,1.312-.842,2.8,2.8,0,0,1,1.311-.841,69.943,69.943,0,0,0,7.338-6.742q3.148-3.38,6.291-6.744,5.765-7.172,11.533-14.542t11.533-14.958q13.1-17.7,24.9-35.187t24.375-35.192q12.053-16.007,24.9-31.816t24.378-32.241Z" transform="translate(-1326.499 -2175.074)" fill="#d6b253"/>
      </g>
      <g id="Group_725" data-name="Group 725" transform="translate(1230.443 166.884)">
        <path id="Path_685" data-name="Path 685" d="M1459.227,2292.1a91.261,91.261,0,0,0-11.533,11.8q-4.717,5.908-10.484,12.224c-2.1,2.525-4.191,4.991-6.291,7.372s-4.195,4.709-6.289,6.952a71.655,71.655,0,0,1-5.766,6.535,70.731,70.731,0,0,0-5.766,6.533c-1.4,1.684-2.976,3.516-4.717,5.477a11.927,11.927,0,0,1-6.817,3.794q-8.377.846-9.435-5.48a7.8,7.8,0,0,1-.786-4.423,36.209,36.209,0,0,1,.786-4.422,14.9,14.9,0,0,1,.523-2.952c.352-1.406.708-2.808,1.052-4.214s.874-3.089,1.571-5.058q4.2-13.484,7.338-26.969t7.339-26.973h10.484q-4.722,16.018-8.912,31.816t-8.388,31.817a7.8,7.8,0,0,0-.523,2.952,11.45,11.45,0,0,0-.525,3.372q2.1-2.529,4.2-5.058t4.192-5.057q10.477-12.219,21.23-24.234a228.866,228.866,0,0,1,23.849-22.965Zm-40.888-32.874q-4.717,0-4.717-4.214t4.717-4.211q5.233,0,5.241,4.211T1418.339,2259.229Z" transform="translate(-1391.292 -2250.803)" fill="#d6b253"/>
      </g>
      <g id="Group_726" data-name="Group 726" transform="translate(1255.256 53.098)">
        <path id="Path_686" data-name="Path 686" d="M1512.239,2353.833a105.4,105.4,0,0,0-9.172,7.374,106.284,106.284,0,0,1-9.174,7.375l-22.015,16.435-11.008,8.851c-1.4,1.409-2.8,2.738-4.2,4s-2.97,2.6-4.715,4a83.983,83.983,0,0,1-14.154,11.379,74.015,74.015,0,0,1,2.881,7.165c.878,2.531,1.653,5.056,2.361,7.586a181.863,181.863,0,0,1,4.192,18.333,109.35,109.35,0,0,1,1.572,18.751,293.672,293.672,0,0,1-1.572,30.345,85.76,85.76,0,0,1-3.407,14.324,33.689,33.689,0,0,1-8.123,13.068,31.006,31.006,0,0,1-4.98,4,34.037,34.037,0,0,1-6.027,3.163,26.227,26.227,0,0,1-6.554,1.683,10.83,10.83,0,0,1-6.554-1.266,15.538,15.538,0,0,1-7.86-9.692,58.7,58.7,0,0,1-1.053-15.17,99.122,99.122,0,0,1,.528-10.113,83.178,83.178,0,0,1,1.574-9.694v-1.264c.35-1.966.7-3.863,1.047-5.689s.7-3.727,1.047-5.687q1.573-8.011,4.455-18.334t6.029-20.648q3.148-10.325,6.029-19.81t4.454-15.377l3.668-13.909,5.768-21.912a11.386,11.386,0,0,0,1.05-4.219q1.055-4.2,2.358-8.214c.878-2.669,1.653-5.269,2.361-7.8a110.189,110.189,0,0,1,2.619-10.746c1.05-3.5,1.915-6.952,2.623-10.324l2.621-9.693c.343-1.118.606-2.108.787-2.95s.434-1.824.782-2.95v-.842a1.149,1.149,0,0,0,.525-.842q1.575-6.319,3.147-12.433t3.145-12.009l15.726-58.578q1.573-5.476,3.145-10.958t3.145-11.378H1491.8a137.035,137.035,0,0,0-6.291,22.757q-5.246,17.288-9.7,34.345t-8.653,34.346l-13.627,51.414a3.837,3.837,0,0,1-.262,1.475,3.731,3.731,0,0,0-.263,1.477q-4.2,14.33-7.862,28.655t-7.864,28.656a31.9,31.9,0,0,0,4.457-3.367q1.833-1.679,4.458-3.8,4.715-4.627,9.434-8.424t9.96-8.01q5.76-4.2,11.006-8.428,5.235-4.2,11.009-8.427,5.235-3.8,10.222-7.374t10.746-7.375ZM1437.805,2481.1q.527-8.431.523-16.435a131.823,131.823,0,0,0-1.05-16.435q-.514-3.364-1.046-6.532a47.736,47.736,0,0,0-1.574-6.53V2433.9a9.142,9.142,0,0,1-1.311-3.372,22.878,22.878,0,0,0-.787-3.372,11.3,11.3,0,0,1-1.05-3.791,3.208,3.208,0,0,1-.522-1.689l-2.62,8.852q-2.616,8.433-4.98,17.279t-4.457,17.7q-2.619,10.114-4.192,19.6a176.337,176.337,0,0,0-2.1,20.015v8.01a1.6,1.6,0,0,0,.263.839,2.374,2.374,0,0,1,.262,1.267v.422a2.461,2.461,0,0,0,.262,1.263,2.36,2.36,0,0,1,.263,1.267,21,21,0,0,0,2.621,4q1.571,1.891,5.766-.212a12.039,12.039,0,0,1,1.834-1.266,12.521,12.521,0,0,0,1.836-1.263,22.255,22.255,0,0,0,6.813-8.849,49.071,49.071,0,0,0,3.932-14.75Q1437.281,2488.264,1437.805,2481.1Z" transform="translate(-1402.552 -2199.169)" fill="#d6b253"/>
      </g>
      <g id="Group_727" data-name="Group 727" transform="translate(1352.572 182.475)">
        <path id="Path_687" data-name="Path 687" d="M1534.044,2283.163q-7.347,4.643-13.63,9.48-6.292,4.858-13.627,9.483c0,.281-.091.42-.264.42s-.265.148-.265.42a51.877,51.877,0,0,0-7.6,4.638,51.754,51.754,0,0,1-7.6,4.638q-5.771,3.379-12.842,7.165a25.209,25.209,0,0,1-14.937,2.947,16.494,16.494,0,0,1-9.44-3.372,16.317,16.317,0,0,1-5.242-7.374,32.677,32.677,0,0,1-1.834-9.062,26.206,26.206,0,0,1,.789-8.427,70.257,70.257,0,0,1,6.288-15.173,62.269,62.269,0,0,1,9.96-13.483,29.56,29.56,0,0,1,6.816-4.635,28.964,28.964,0,0,1,12.055-2.952,45.492,45.492,0,0,1,7.864,1.475,13.237,13.237,0,0,1,6.291,4,8.544,8.544,0,0,1,.522,8.638,15.2,15.2,0,0,1-6.813,6.952,35.838,35.838,0,0,1-18.872,2.53,14.637,14.637,0,0,1-3.932-1.055,11.573,11.573,0,0,1-2.356-1.475l-3.145,5.061a27.963,27.963,0,0,0-2.623,5.476,40.03,40.03,0,0,0-2.359,8.008,19.521,19.521,0,0,0,.26,8.427,28.136,28.136,0,0,0,1.312,4.006,7.82,7.82,0,0,0,2.357,3.16,6.507,6.507,0,0,0,4.2,1.264,21.694,21.694,0,0,0,7.862-2.319q3.66-1.894,7.339-3.58,3.658-2.107,7.338-4.428,3.662-2.309,7.338-4.842c.346,0,1.393-.7,3.145-2.109a1.686,1.686,0,0,0,1.05-.42q2.09-1.266,4.717-2.741a38.657,38.657,0,0,0,5.243-3.58c1.047-.56,2.528-1.477,4.456-2.741s3.578-2.317,4.979-3.16l1.572-1.266a38.812,38.812,0,0,1,5.241-3.582q2.618-1.471,5.242-3.159Zm-50.845-16.857H1479a23.736,23.736,0,0,0-4.455,1.9,6.8,6.8,0,0,0-2.359,1.9,6.61,6.61,0,0,0-1.312,1.266,3.445,3.445,0,0,1-.785.841,4.022,4.022,0,0,0,2.621.845,1.648,1.648,0,0,0,1.047.42,18.544,18.544,0,0,0,10.486-1.266,8.085,8.085,0,0,0,2.1-1.263c.7-.56,1.049-.983,1.049-1.264a3.216,3.216,0,0,0,.525-1.686v-.422l-.525-.423h-1.049v-.416h-1.047a1.706,1.706,0,0,0-1.048-.425Z" transform="translate(-1446.712 -2257.877)" fill="#d6b253"/>
      </g>
    </g>
  </g>
</svg>
